HIERARCHY
ROOT hip
{
  OFFSET 0 0 0
  CHANNELS 6 Xposition Yposition Zposition Zrotation Yrotation Xrotation
  JOINT abdomen
  {
    OFFSET 0 20.6881 -0.73152
    CHANNELS 3 Zrotation Xrotation Yrotation
    JOINT chest
    {
      OFFSET 0 11.7043 -0.48768
      CHANNELS 3 Zrotation Xrotation Yrotation
      JOINT neck
      {
        OFFSET 0 22.1894 -2.19456
        CHANNELS 3 Zrotation Xrotation Yrotation
        JOINT head
        {
          OFFSET -0.24384 7.07133 1.2192
          CHANNELS 3 Zrotation Xrotation Yrotation
          JOINT leftEye
          {
            OFFSET 4.14528 8.04674 8.04672
            CHANNELS 3 Zrotation Xrotation Yrotation
            End Site
            {
              OFFSET 1 0 0
            }
          }
          JOINT rightEye
          {
            OFFSET -3.6576 8.04674 8.04672
            CHANNELS 3 Zrotation Xrotation Yrotation
            End Site
            {
              OFFSET 1 0 0
            }
          }
        }
      }
      JOINT rCollar
      {
        OFFSET -2.68224 19.2634 -4.8768
        CHANNELS 3 Zrotation Xrotation Yrotation
        JOINT rShldr
        {
          OFFSET -8.77824 -1.95073 1.46304
          CHANNELS 3 Zrotation Xrotation Yrotation
          JOINT rForeArm
          {
            OFFSET -28.1742 -1.7115 0.48768
            CHANNELS 3 Zrotation Xrotation Yrotation
            JOINT rHand
            {
              OFFSET -22.5879 0.773209 7.07136
              CHANNELS 3 Zrotation Xrotation Yrotation
              JOINT rThumb1
              {
                OFFSET -1.2192 -0.487915 3.41376
                CHANNELS 3 Zrotation Xrotation Yrotation
                JOINT rThumb2
                {
                  OFFSET -3.37035 -0.52449 3.41376
                  CHANNELS 3 Zrotation Xrotation Yrotation
                  End Site
                  {
                    OFFSET -1.78271 -1.18214 1.43049
                  }
                }
              }
              JOINT rIndex1
              {
                OFFSET -7.75947 0.938293 5.60832
                CHANNELS 3 Zrotation Xrotation Yrotation
                JOINT rIndex2
                {
                  OFFSET -2.54057 -0.884171 1.56538
                  CHANNELS 3 Zrotation Xrotation Yrotation
                  End Site
                  {
                    OFFSET -1.62519 -0.234802 1.16502
                  }
                }
              }
              JOINT rMid1
              {
                OFFSET -8.24714 1.18213 3.41376
                CHANNELS 3 Zrotation Xrotation Yrotation
                JOINT rMid2
                {
                  OFFSET -3.10165 -0.590103 1.0647
                  CHANNELS 3 Zrotation Xrotation Yrotation
                  End Site
                  {
                    OFFSET -2.48547 -0.328903 0.83742
                  }
                }
              }
              JOINT rRing1
              {
                OFFSET -8.82822 0.546677 1.51678
                CHANNELS 3 Zrotation Xrotation Yrotation
                JOINT rRing2
                {
                  OFFSET -2.60934 -0.819778 -0.0198488
                  CHANNELS 3 Zrotation Xrotation Yrotation
                  End Site
                  {
                    OFFSET -2.33842 -0.294052 0.168128
                  }
                }
              }
              JOINT rPinky1
              {
                OFFSET -8.27202 -0.0477905 -0.4584
                CHANNELS 3 Zrotation Xrotation Yrotation
                JOINT rPinky2
                {
                  OFFSET -1.82734 -0.647385 -0.700984
                  CHANNELS 3 Zrotation Xrotation Yrotation
                  End Site
                  {
                    OFFSET -1.69225 -0.51767 -0.607171
                  }
                }
              }
            }
          }
        }
      }
      JOINT lCollar
      {
        OFFSET 2.68224 19.2634 -4.8768
        CHANNELS 3 Zrotation Xrotation Yrotation
        JOINT lShldr
        {
          OFFSET 8.77824 -1.95073 1.46304
          CHANNELS 3 Zrotation Xrotation Yrotation
          JOINT lForeArm
          {
            OFFSET 28.1742 -1.7115 0.48768
            CHANNELS 3 Zrotation Xrotation Yrotation
            JOINT lHand
            {
              OFFSET 22.5879 0.773209 7.07136
              CHANNELS 3 Zrotation Xrotation Yrotation
              JOINT lThumb1
              {
                OFFSET 1.2192 -0.487915 3.41376
                CHANNELS 3 Zrotation Xrotation Yrotation
                JOINT lThumb2
                {
                  OFFSET 3.37035 -0.52449 3.41376
                  CHANNELS 3 Zrotation Xrotation Yrotation
                  End Site
                  {
                    OFFSET 1.78271 -1.18214 1.43049
                  }
                }
              }
              JOINT lIndex1
              {
                OFFSET 7.75947 0.938293 5.60832
                CHANNELS 3 Zrotation Xrotation Yrotation
                JOINT lIndex2
                {
                  OFFSET 2.54057 -0.884171 1.56538
                  CHANNELS 3 Zrotation Xrotation Yrotation
                  End Site
                  {
                    OFFSET 1.62519 -0.234802 1.16502
                  }
                }
              }
              JOINT lMid1
              {
                OFFSET 8.24714 1.18213 3.41376
                CHANNELS 3 Zrotation Xrotation Yrotation
                JOINT lMid2
                {
                  OFFSET 3.10165 -0.590103 1.0647
                  CHANNELS 3 Zrotation Xrotation Yrotation
                  End Site
                  {
                    OFFSET 2.48547 -0.328903 0.83742
                  }
                }
              }
              JOINT lRing1
              {
                OFFSET 8.82822 0.546677 1.51678
                CHANNELS 3 Zrotation Xrotation Yrotation
                JOINT lRing2
                {
                  OFFSET 2.60934 -0.819778 -0.0198488
                  CHANNELS 3 Zrotation Xrotation Yrotation
                  End Site
                  {
                    OFFSET 2.33842 -0.294052 0.168128
                  }
                }
              }
              JOINT lPinky1
              {
                OFFSET 8.27202 -0.0477905 -0.4584
                CHANNELS 3 Zrotation Xrotation Yrotation
                JOINT lPinky2
                {
                  OFFSET 1.82734 -0.647385 -0.700984
                  CHANNELS 3 Zrotation Xrotation Yrotation
                  End Site
                  {
                    OFFSET 1.69225 -0.51767 -0.607171
                  }
                }
              }
            }
          }
        }
      }
    }
  }
  JOINT rButtock
  {
    OFFSET -8.77824 4.35084 1.2192
    CHANNELS 3 Zrotation Xrotation Yrotation
    JOINT rThigh
    {
      OFFSET 0 -1.70687 -2.19456
      CHANNELS 3 Zrotation Xrotation Yrotation
      JOINT rShin
      {
        OFFSET 0 -36.8199 0.73152
        CHANNELS 3 Zrotation Xrotation Yrotation
        JOINT rFoot
        {
          OFFSET 0.73152 -45.1104 -5.12064
          CHANNELS 3 Zrotation Xrotation Yrotation
          End Site
          {
            OFFSET -1.1221 -3.69964 12.103
          }
        }
      }
    }
  }
  JOINT lButtock
  {
    OFFSET 8.77824 4.35084 1.2192
    CHANNELS 3 Zrotation Xrotation Yrotation
    JOINT lThigh
    {
      OFFSET 0 -1.70687 -2.19456
      CHANNELS 3 Zrotation Xrotation Yrotation
      JOINT lShin
      {
        OFFSET 0 -36.8199 0.73152
        CHANNELS 3 Zrotation Xrotation Yrotation
        JOINT lFoot
        {
          OFFSET -0.73152 -45.1104 -5.12064
          CHANNELS 3 Zrotation Xrotation Yrotation
          End Site
          {
            OFFSET 1.1221 -3.69964 12.103
          }
        }
      }
    }
  }
}
MOTION
Frames:	9
Frame Time:	0.00833333
49.4575 80.0899 -32.3865 517.399 91.7016 515.159 -5.81906 5.36182 -2.13091 -1.5966 1.45476 -0.900976 2.24578 6.39493 0.398334 1.69074 -16.9673 0.731301 -0.0 0.0 0.0 -0.0 0.0 0.0 -3.71932e-14 -5.44312e-13 -8.7607e-14 83.8172 21.8203 0.171634 -12.3109 -5.6693 22.2129 -0.0463332 6.13187 0.865116 -1.17318e-09 -5.21021e-10 5.41871e-09 -1.99436e-09 -8.9815e-10 9.37449e-09 -1.17317e-09 -5.21025e-10 5.4187e-09 7.73091 5.47488 0.417314 -1.17318e-09 -5.21025e-10 5.41871e-09 2.90554 0.965183 0.102902 -1.17317e-09 -5.21024e-10 5.41871e-09 10.2786 0.731801 0.0259123 -1.17318e-09 -5.21022e-10 5.41872e-09 2.22167 -0.733487 -0.20892 -3.73659e-14 -5.44308e-13 -8.78271e-14 -74.0475 26.1937 -10.7062 13.5322 -6.58344 -24.6168 0.259142 -14.3426 2.05935 4.15227e-10 1.80963e-09 -4.52475e-09 7.49985e-10 3.12814e-09 -7.81558e-09 4.15221e-10 1.80963e-09 -4.52474e-09 -7.73091 5.47488 -0.417314 4.15226e-10 1.80963e-09 -4.52475e-09 -2.90554 0.965183 -0.102902 4.15223e-10 1.80963e-09 -4.52475e-09 -10.2786 0.731801 -0.0259123 4.15234e-10 1.80963e-09 -4.52476e-09 -2.22167 -0.733487 0.20892 -2.03217e-16 0.0 -3.88251e-19 0.399759 -30.084 3.90642 -1.07248 60.8686 1.80261 -5.92564 -12.418 -16.7579 2.03217e-16 0.0 3.88251e-19 -3.80847 -8.22692 12.7712 -0.0460598 31.4862 -0.719427 0.897153 -18.6517 0.389032
50.3362 80.071 -32.4517 520.432 91.5474 518.266 -5.91413 5.35684 -2.28332 -1.4793 1.39632 -0.930306 2.25805 6.40833 0.420628 1.62333 -17.0786 0.763249 -0.0 0.0 0.0 -0.0 0.0 0.0 -2.296e-14 -2.59668e-13 -4.5969e-14 83.8579 22.0001 -0.0102375 -12.4479 -5.76776 22.4802 -0.0421562 5.84991 0.825048 -1.07072e-09 -3.55837e-10 4.12688e-09 -1.82673e-09 -6.14289e-10 7.14072e-09 -1.07072e-09 -3.55842e-10 4.12688e-09 7.73091 5.47488 0.417314 -1.07073e-09 -3.5584e-10 4.12688e-09 2.90554 0.965183 0.102902 -1.07072e-09 -3.5584e-10 4.12688e-09 10.2786 0.731801 0.0259123 -1.07073e-09 -3.55837e-10 4.12689e-09 2.22167 -0.733487 -0.20892 -2.31596e-14 -2.59659e-13 -4.62174e-14 -73.6299 26.5003 -11.2592 13.725 -6.73466 -25.0024 0.263863 -14.4694 2.07835 2.36363e-10 1.63721e-09 -3.36382e-09 4.32519e-10 2.83112e-09 -5.81092e-09 2.36358e-10 1.63721e-09 -3.36381e-09 -7.73091 5.47488 -0.417314 2.36362e-10 1.63721e-09 -3.36382e-09 -2.90554 0.965183 -0.102902 2.36357e-10 1.63721e-09 -3.36382e-09 -10.2786 0.731801 -0.0259123 2.36369e-10 1.63721e-09 -3.36383e-09 -2.22167 -0.733487 0.20892 -2.03217e-16 0.0 -3.88251e-19 0.474459 -30.7918 4.09743 -0.972153 59.405 1.74018 -6.11169 -12.852 -16.9488 2.03217e-16 0.0 3.88251e-19 -4.12777 -7.41104 12.4659 -0.0661294 30.9807 -0.782079 1.04 -18.9356 0.786399
51.2151 80.0671 -32.5068 524.11 91.3859 522.022 -6.01928 5.34673 -2.43117 -1.3528 1.34977 -0.958528 2.26395 6.41889 0.43952 1.56866 -17.1973 0.791273 -0.0 0.0 0.0 -0.0 0.0 0.0 -1.89295e-14 -5.48292e-14 -2.3806e-14 83.8931 22.1632 -0.172535 -12.5743 -5.85944 22.7272 -0.038222 5.57088 0.785441 -9.4758e-10 -2.50513e-10 2.8181e-09 -1.62247e-09 -4.33465e-10 4.87717e-09 -9.47575e-10 -2.50518e-10 2.81809e-09 7.73091 5.47488 0.417314 -9.47582e-10 -2.50516e-10 2.8181e-09 2.90554 0.965183 0.102902 -9.47574e-10 -2.50517e-10 2.8181e-09 10.2786 0.731801 0.0259123 -9.47583e-10 -2.50514e-10 2.81811e-09 2.22167 -0.733487 -0.20892 -1.91017e-14 -5.48196e-14 -2.40739e-14 -73.2169 26.7557 -11.8181 13.9033 -6.87634 -25.3603 0.265959 -14.5233 2.08647 1.25223e-10 1.23961e-09 -2.38037e-09 2.33783e-10 2.14383e-09 -4.11272e-09 1.25217e-10 1.23962e-09 -2.38035e-09 -7.73091 5.47488 -0.417314 1.25222e-10 1.23962e-09 -2.38037e-09 -2.90554 0.965183 -0.102902 1.25217e-10 1.23962e-09 -2.38037e-09 -10.2786 0.731801 -0.0259123 1.25228e-10 1.23962e-09 -2.38037e-09 -2.22167 -0.733487 0.20892 -2.03217e-16 0.0 -3.88251e-19 0.509658 -31.438 4.23374 -0.877317 57.8425 1.67953 -6.24871 -13.1416 -17.1156 2.03217e-16 0.0 3.88251e-19 -4.44011 -6.53681 12.2205 -0.0894399 30.3561 -0.83889 1.1674 -19.1441 1.13352
52.0937 80.0731 -32.5585 528.465 91.2326 526.458 -6.13054 5.33064 -2.57254 -1.2196 1.31274 -0.984856 2.26537 6.42737 0.455909 1.52343 -17.3241 0.816379 -0.0 0.0 0.0 -0.0 0.0 0.0 -2.00715e-14 1.44876e-13 -8.44214e-15 83.9241 22.3082 -0.318046 -12.6908 -5.94509 22.9551 -0.0345403 5.30079 0.747129 -7.98627e-10 -1.76839e-10 1.3334e-09 -1.37415e-09 -3.07285e-10 2.30914e-09 -7.98621e-10 -1.76843e-10 1.3334e-09 7.73091 5.47488 0.417314 -7.98628e-10 -1.76843e-10 1.3334e-09 2.90554 0.965183 0.102902 -7.98619e-10 -1.76844e-10 1.3334e-09 10.2786 0.731801 0.0259123 -7.9863e-10 -1.76841e-10 1.33341e-09 2.22167 -0.733487 -0.20892 -2.01838e-14 1.44883e-13 -8.72789e-15 -72.8096 26.9617 -12.3806 14.0695 -7.01053 -25.6943 0.265591 -14.5133 2.08496 3.15287e-11 6.66815e-10 -1.36435e-09 6.51947e-11 1.15307e-09 -2.3583e-09 3.15214e-11 6.66817e-10 -1.36433e-09 -7.73091 5.47488 -0.417314 3.15284e-11 6.66817e-10 -1.36435e-09 -2.90554 0.965183 -0.102902 3.1521e-11 6.66817e-10 -1.36435e-09 -10.2786 0.731801 -0.0259123 3.15313e-11 6.66817e-10 -1.36435e-09 -2.22167 -0.733487 0.20892 -2.03217e-16 0.0 -3.88251e-19 0.509255 -32.0269 4.32408 -0.787562 56.1748 1.62082 -6.3424 -13.2978 -17.2691 2.03217e-16 0.0 3.88251e-19 -4.75378 -5.61017 12.0044 -0.116033 29.6212 -0.890565 1.291 -19.2888 1.46904
52.9718 80.0865 -32.6053 533.335 91.0885 531.411 -6.23288 5.30544 -2.70186 -1.09097 1.27907 -1.00792 2.26758 6.43846 0.470116 1.48689 -17.4499 0.838572 -0.0 0.0 0.0 -0.0 0.0 0.0 -2.02976e-14 2.78677e-13 2.47083e-15 83.9599 22.4272 -0.455219 -12.7941 -6.02158 23.1575 -0.0313773 5.05513 0.712314 -6.69039e-10 -1.16889e-10 1.59456e-11 -1.15797e-09 -2.04576e-10 3.03215e-11 -6.69032e-10 -1.16892e-10 1.59372e-11 7.73091 5.47488 0.417314 -6.69039e-10 -1.16893e-10 1.59425e-11 2.90554 0.965183 0.102902 -6.6903e-10 -1.16895e-10 1.59447e-11 10.2786 0.731801 0.0259123 -6.69043e-10 -1.16892e-10 1.59494e-11 2.22167 -0.733487 -0.20892 -2.03427e-14 2.7868e-13 2.17343e-15 -72.4091 27.145 -12.9339 14.2251 -7.13765 -26.0079 0.264923 -14.4963 2.0824 -7.51897e-11 1.23372e-10 -4.78129e-10 -1.25117e-10 2.129e-10 -8.28241e-10 -7.51983e-11 1.23374e-10 -4.78106e-10 -7.73091 5.47488 -0.417314 -7.51897e-11 1.23375e-10 -4.78127e-10 -2.90554 0.965183 -0.102902 -7.51981e-11 1.23375e-10 -4.78122e-10 -10.2786 0.731801 -0.0259123 -7.51887e-11 1.23375e-10 -4.78125e-10 -2.22167 -0.733487 0.20892 -2.03217e-16 0.0 -3.88251e-19 0.501696 -32.561 4.39433 -0.703982 54.4275 1.566 -6.41205 -13.3696 -17.4255 2.03217e-16 0.0 3.88251e-19 -5.0475 -4.64141 11.8256 -0.140447 28.7979 -0.938271 1.39967 -19.3818 1.7691
53.8501 80.1084 -32.6464 538.748 90.9549 536.908 -6.31126 5.26797 -2.81359 -0.978163 1.2426 -1.02636 2.27584 6.45687 0.48246 1.45827 -17.566 0.857851 -0.0 0.0 0.0 -0.0 0.0 0.0 -1.352e-14 2.85803e-13 1.1281e-14 84.0092 22.5123 -0.592508 -12.8808 -6.08587 23.3281 -0.0289298 4.84943 0.683191 -6.03991e-10 -5.27336e-11 -7.91112e-10 -1.05015e-09 -9.41667e-11 -1.36562e-09 -6.03983e-10 -5.27356e-11 -7.91122e-10 7.73091 5.47488 0.417314 -6.0399e-10 -5.27379e-11 -7.91115e-10 2.90554 0.965183 0.102902 -6.03982e-10 -5.27398e-11 -7.91112e-10 10.2786 0.731801 0.0259123 -6.03995e-10 -5.27372e-11 -7.91109e-10 2.22167 -0.733487 -0.20892 -1.35156e-14 2.85803e-13 1.09829e-14 -72.0157 27.3325 -13.4659 14.3714 -7.25811 -26.3045 0.26612 -14.5294 2.08737 -2.25401e-10 -1.86152e-10 1.15931e-10 -3.89027e-10 -3.22655e-10 1.96885e-10 -2.2541e-10 -1.86151e-10 1.15957e-10 -7.73091 5.47488 -0.417314 -2.25401e-10 -1.86149e-10 1.15934e-10 -2.90554 0.965183 -0.102902 -2.2541e-10 -1.86148e-10 1.15939e-10 -10.2786 0.731801 -0.0259123 -2.25401e-10 -1.86148e-10 1.15938e-10 -2.22167 -0.733487 0.20892 -2.03217e-16 0.0 -3.88251e-19 0.516798 -33.0425 4.47111 -0.627097 52.626 1.51643 -6.47765 -13.4058 -17.6012 2.03217e-16 0.0 3.88251e-19 -5.30084 -3.64098 11.6921 -0.157162 27.9078 -0.983204 1.48255 -19.4353 2.00989
54.727 80.1363 -32.6806 544.662 90.837 542.91 -6.35731 5.21853 -2.90503 -0.884402 1.20115 -1.03919 2.29111 6.4865 0.490943 1.43993 -17.6743 0.870663 -0.0 0.0 0.0 -0.0 0.0 0.0 6.45631e-15 8.34763e-14 1.84881e-14 84.0772 22.5596 -0.735915 -12.953 -6.13967 23.4706 -0.0270297 4.68216 0.659524 -6.40929e-10 2.92329e-11 -8.96625e-10 -1.11413e-09 4.765e-11 -1.54799e-09 -6.40923e-10 2.92328e-11 -8.96637e-10 7.73091 5.47488 0.417314 -6.4093e-10 2.92307e-11 -8.96627e-10 2.90554 0.965183 0.102902 -6.40924e-10 2.9229e-11 -8.96624e-10 10.2786 0.731801 0.0259123 -6.40935e-10 2.92319e-11 -8.96621e-10 2.22167 -0.733487 -0.20892 6.48999e-15 8.34734e-14 1.8209e-14 -71.6245 27.5389 -13.9779 14.5105 -7.3737 -26.5873 0.270208 -14.6389 2.10378 -4.7508e-10 -1.69635e-10 3.06701e-10 -8.22729e-10 -2.94352e-10 5.24638e-10 -4.75088e-10 -1.69636e-10 3.06723e-10 -7.73091 5.47488 -0.417314 -4.7508e-10 -1.69633e-10 3.06703e-10 -2.90554 0.965183 -0.102902 -4.75089e-10 -1.69632e-10 3.06705e-10 -10.2786 0.731801 -0.0259123 -4.75078e-10 -1.69633e-10 3.06703e-10 -2.22167 -0.733487 0.20892 -2.03217e-16 0.0 -3.88251e-19 0.559753 -33.4699 4.54756 -0.556132 50.7641 1.4711 -6.54136 -13.3957 -17.8123 2.03217e-16 0.0 3.88251e-19 -5.50808 -2.61424 11.6055 -0.164521 26.9606 -1.02643 1.53663 -19.4609 2.18526
55.6031 80.1685 -32.707 550.864 90.7395 549.207 -6.38055 5.15843 -2.97955 -0.803588 1.15818 -1.04736 2.31073 6.52396 0.496088 1.43135 -17.778 0.878174 -0.0 0.0 0.0 -0.0 0.0 0.0 3.48605e-14 -2.73701e-13 2.2882e-14 84.1578 22.5739 -0.8795 -13.0119 -6.18394 23.5867 -0.025479 4.54694 0.640394 -7.47296e-10 1.16507e-10 -5.16824e-10 -1.2949e-09 1.99117e-10 -8.90877e-10 -7.47291e-10 1.1651e-10 -5.16838e-10 7.73091 5.47488 0.417314 -7.47297e-10 1.16509e-10 -5.16823e-10 2.90554 0.965183 0.102902 -7.47294e-10 1.16507e-10 -5.1682e-10 10.2786 0.731801 0.0259123 -7.47303e-10 1.16511e-10 -5.16816e-10 2.22167 -0.733487 -0.20892 3.49152e-14 -2.73707e-13 2.26366e-14 -71.2372 27.7475 -14.4748 14.6414 -7.48386 -26.8536 0.275977 -14.7905 2.12657 -7.92026e-10 5.12984e-11 2.03385e-10 -1.3711e-09 8.73776e-11 3.43865e-10 -7.92033e-10 5.12951e-11 2.034e-10 -7.73091 5.47488 -0.417314 -7.92028e-10 5.12966e-11 2.03385e-10 -2.90554 0.965183 -0.102902 -7.92034e-10 5.12985e-11 2.03383e-10 -10.2786 0.731801 -0.0259123 -7.92022e-10 5.12979e-11 2.03379e-10 -2.22167 -0.733487 0.20892 -2.03217e-16 0.0 -3.88251e-19 0.614689 -33.8428 4.6135 -0.490637 48.8326 1.42939 -6.59249 -13.3212 -18.046 2.03217e-16 0.0 3.88251e-19 -5.68375 -1.55552 11.5618 -0.165606 25.9434 -1.06718 1.56666 -19.4496 2.30746
56.4763 80.2042 -32.7251 556.978 90.6635 555.427 -6.39276 5.08607 -3.04067 -0.733037 1.11601 -1.05234 2.33455 6.56301 0.502002 1.42752 -17.8703 0.88747 -0.0 0.0 0.0 -0.0 0.0 0.0 6.13323e-14 -6.40432e-13 2.42459e-14 84.2432 22.5606 -1.01381 -13.0523 -6.21456 23.6663 -0.0243855 4.45198 0.626962 -8.63251e-10 1.87851e-10 8.03885e-11 -1.49097e-09 3.23213e-10 1.42227e-10 -8.63248e-10 1.87856e-10 8.03727e-11 7.73091 5.47488 0.417314 -8.63254e-10 1.87856e-10 8.03908e-11 2.90554 0.965183 0.102902 -8.63254e-10 1.87855e-10 8.0394e-11 10.2786 0.731801 0.0259123 -8.63259e-10 1.87859e-10 8.03996e-11 2.22167 -0.733487 -0.20892 6.13965e-14 -6.40441e-13 2.40328e-14 -70.8643 27.939 -14.9499 14.7611 -7.58552 -27.098 0.282207 -14.951 2.15075 -1.07445e-09 3.60595e-10 -2.5875e-11 -1.85905e-09 6.22071e-10 -5.40873e-11 -1.07445e-09 3.60589e-10 -2.58676e-11 -7.73091 5.47488 -0.417314 -1.07445e-09 3.6059e-10 -2.5877e-11 -2.90554 0.965183 -0.102902 -1.07446e-09 3.60593e-10 -2.58832e-11 -10.2786 0.731801 -0.0259123 -1.07444e-09 3.60592e-10 -2.589e-11 -2.22167 -0.733487 0.20892 -2.03217e-16 0.0 -3.88251e-19 0.681297 -34.1651 4.69135 -0.430929 46.8525 1.39267 -6.63269 -13.2206 -18.2751 2.03217e-16 0.0 3.88251e-19 -5.8385 -0.458897 11.5613 -0.161896 24.8444 -1.10398 1.57366 -19.3828 2.38045
